<svg width="275" height="200" xmlns="http://www.w3.org/2000/svg">
 <g>
  <title>background</title>
  <rect x="-1" y="-1" width="277" height="202" id="canvas_background" fill="none"/>
 </g>

 <g>
  <title>Layer 1</title>
  <g id="svgg">
   <path id="path0" d="m123.2147,38.525485c-3.52,5.702 -9.948,16.075 -14.285,23.053c-4.337,6.978 -8.076,13.047 -8.309,13.487c-1.315,2.484 -14.374,23.189 -14.693,23.296c-0.21,0.07 -1.524,-1.633 -2.92,-3.785c-7.051,-10.865 -8.398,-12.948 -10.22,-15.805c-1.085,-1.701 -2.084,-3.096 -2.219,-3.1c-0.21,-0.005 -6.93,10.886 -9.36,15.172c-0.443,0.782 -5.933,9.972 -12.2,20.422c-12.286,20.487 -12.155,20.245 -10.734,19.859c0.517,-0.14 2.198,-0.376 3.736,-0.523l2.796,-0.269l10.53,-10.433c5.792,-5.739 10.675,-10.434 10.853,-10.434c0.177,0 2.19,1.731 4.473,3.846c7.047,6.527 5.535,5.847 13.359,6.003c3.736,0.075 6.976,0.02 7.199,-0.122c0.223,-0.142 3.896,-5.313 8.163,-11.492c4.267,-6.179 7.896,-11.235 8.066,-11.235c0.298,0 3.094,4.322 9.151,14.147l2.927,4.747l0.48,-1.147c0.264,-0.631 0.856,-2.227 1.315,-3.547c0.46,-1.32 1.674,-4.74 2.699,-7.6c1.025,-2.86 2.025,-5.728 2.222,-6.374c0.751,-2.465 2.452,-6.626 2.706,-6.62c0.146,0.004 1.075,1.18 2.065,2.614c6.615,9.584 6.283,9.28 7.509,6.88c2.222,-4.352 4.569,-8.549 5.052,-9.032c0.552,-0.552 0.098,-1.145 21.604,28.232c3.262,4.455 6.067,8.1 6.234,8.1c0.167,0 6.011,-5.625 12.987,-12.5c6.976,-6.875 12.846,-12.559 13.045,-12.632c0.481,-0.176 1.905,0.974 5.78,4.664c1.771,1.688 5.733,5.418 8.805,8.29c5.488,5.132 16.522,15.441 20.313,18.978c2.406,2.244 2.276,2.206 4.035,1.168c1.454,-0.858 1.46,-0.872 0.794,-1.916c-0.672,-1.053 -14.005,-20.659 -16.356,-24.052c-3.804,-5.489 -13.238,-19.248 -17.553,-25.6c-1.868,-2.75 -4.632,-6.8 -6.142,-9c-1.51,-2.2 -3.885,-5.669 -5.278,-7.708c-3.136,-4.593 -2.961,-4.502 -4.272,-2.202c-0.599,1.051 -2.21,3.8 -3.581,6.11c-1.37,2.31 -2.856,4.855 -3.302,5.655c-2.509,4.508 -7.011,11.943 -7.225,11.933c-0.137,-0.006 -4.065,-5.271 -8.73,-11.7c-17.843,-24.592 -33.784,-46.49 -34.607,-47.541c-0.443,-0.565 -1.372,0.74 -6.912,9.713" fill="#212831" fill-rule="evenodd"/>
   <path id="path2" d="m44.48894,133.61986c-8.53,0.966 -17.839,4.468 -23.635,8.893c-1.927,1.472 -1.519,1.702 1.311,0.741c14.573,-4.947 33.7,-2.627 54.438,6.604c0.88,0.391 2.68,1.167 4,1.722c1.32,0.556 4.895,2.197 7.944,3.646c3.048,1.45 5.603,2.636 5.676,2.636c0.073,0 1.646,0.702 3.496,1.561c26.932,12.5 42.259,13.998 59.37,5.804c4.323,-2.07 4.01,-2.038 7.546,-0.781c32.031,11.391 61.299,-0.387 90.297,-36.337c2.663,-3.302 2.182,-3.204 -3.204,0.652c-20.078,14.372 -32.382,20.673 -46.875,24.005c-6.795,1.562 -22.39,1.151 -28.012,-0.737c-0.373,-0.126 0.571,-1.355 2.826,-3.678c4.045,-4.166 10.736,-11.948 10.736,-12.487c0,-0.21 -1.935,0.997 -4.3,2.682c-5.12,3.65 -12.225,8.311 -15.346,10.067l-2.247,1.265l-3.953,-1.354c-4.584,-1.569 -12.284,-4.597 -15.869,-6.241c-1.98,-0.908 -9.458,-4.211 -20.885,-9.226c-11.812,-5.184 -22.634,-8.317 -33.8,-9.784c-5.53,-0.727 -15.587,-0.718 -20.6,0.017m45.8,21.479c1.21,0.555 4.18,1.911 6.6,3.014c2.42,1.103 6.349,2.922 8.731,4.042c2.382,1.121 4.386,2.037 4.454,2.037c1.1,0 7.854,3.768 7.193,4.012c-8.327,3.081 -26.904,-1.353 -49.707,-11.862c-1.611,-0.743 -2.994,-1.35 -3.072,-1.35c-0.079,0 -1.371,-0.551 -2.871,-1.225c-1.5,-0.674 -3.088,-1.387 -3.528,-1.584c-8.812,-3.946 -20.901,-7.386 -28.948,-8.236c-1.827,-0.193 -2.365,-0.372 -1.902,-0.631c2.386,-1.335 20.463,-1.3 27.646,0.054m151.511,2.803" fill="#00adb5" fill-rule="evenodd"/>
  </g>
 </g>
</svg>